<mxfile host="app.diagrams.net" modified="2024-01-13T10:42:15.957Z" agent="Mozilla/5.0 (Windows NT 10.0; Win64; x64) AppleWebKit/537.36 (KHTML, like Gecko) Chrome/120.0.0.0 Safari/537.36" etag="qeBeEGU46ETdh_JO3gHm" version="22.1.18" type="device">
  <diagram name="Page-1" id="5jhD44I70n8iwSvgotvu">
    <mxGraphModel dx="2140" dy="1622" grid="1" gridSize="10" guides="1" tooltips="1" connect="1" arrows="1" fold="1" page="1" pageScale="1" pageWidth="850" pageHeight="1100" math="0" shadow="0">
      <root>
        <mxCell id="0" />
        <mxCell id="1" parent="0" />
        <mxCell id="NjSx0YxmvgouXyziD684-1" value="Văn Phòng" style="rounded=0;whiteSpace=wrap;html=1;" parent="1" vertex="1">
          <mxGeometry x="-840" y="-790" width="120" height="60" as="geometry" />
        </mxCell>
        <mxCell id="NjSx0YxmvgouXyziD684-2" value="&lt;b&gt;&lt;u&gt;Mã Số Văn Phòng&lt;/u&gt;&lt;/b&gt;" style="ellipse;whiteSpace=wrap;html=1;" parent="1" vertex="1">
          <mxGeometry x="-840" y="-880" width="100" height="50" as="geometry" />
        </mxCell>
        <mxCell id="NjSx0YxmvgouXyziD684-3" value="Địa điểm" style="ellipse;whiteSpace=wrap;html=1;" parent="1" vertex="1">
          <mxGeometry x="-740" y="-870" width="90" height="60" as="geometry" />
        </mxCell>
        <mxCell id="NjSx0YxmvgouXyziD684-4" value="" style="endArrow=none;html=1;rounded=0;entryX=0.5;entryY=1;entryDx=0;entryDy=0;" parent="1" target="NjSx0YxmvgouXyziD684-2" edge="1">
          <mxGeometry width="50" height="50" relative="1" as="geometry">
            <mxPoint x="-790" y="-789" as="sourcePoint" />
            <mxPoint x="-490" y="-880" as="targetPoint" />
          </mxGeometry>
        </mxCell>
        <mxCell id="NjSx0YxmvgouXyziD684-6" value="" style="endArrow=none;html=1;rounded=0;entryX=0.82;entryY=-0.013;entryDx=0;entryDy=0;entryPerimeter=0;exitX=0.249;exitY=0.907;exitDx=0;exitDy=0;exitPerimeter=0;" parent="1" source="NjSx0YxmvgouXyziD684-3" target="NjSx0YxmvgouXyziD684-1" edge="1">
          <mxGeometry width="50" height="50" relative="1" as="geometry">
            <mxPoint x="-710" y="-810" as="sourcePoint" />
            <mxPoint x="-490" y="-880" as="targetPoint" />
          </mxGeometry>
        </mxCell>
        <mxCell id="NjSx0YxmvgouXyziD684-7" value="Nhân Viên" style="rounded=0;whiteSpace=wrap;html=1;" parent="1" vertex="1">
          <mxGeometry x="-530" y="-790" width="120" height="60" as="geometry" />
        </mxCell>
        <mxCell id="NjSx0YxmvgouXyziD684-8" value="&lt;b&gt;&lt;u&gt;Mã Số Nhân Viên&lt;/u&gt;&lt;/b&gt;" style="ellipse;whiteSpace=wrap;html=1;" parent="1" vertex="1">
          <mxGeometry x="-520" y="-880" width="100" height="65" as="geometry" />
        </mxCell>
        <mxCell id="NjSx0YxmvgouXyziD684-9" value="Tên Nhân Viên" style="ellipse;whiteSpace=wrap;html=1;" parent="1" vertex="1">
          <mxGeometry x="-420" y="-860" width="90" height="60" as="geometry" />
        </mxCell>
        <mxCell id="NjSx0YxmvgouXyziD684-10" value="" style="endArrow=none;html=1;rounded=0;entryX=0.5;entryY=1;entryDx=0;entryDy=0;exitX=0.5;exitY=0;exitDx=0;exitDy=0;" parent="1" source="NjSx0YxmvgouXyziD684-7" target="NjSx0YxmvgouXyziD684-8" edge="1">
          <mxGeometry width="50" height="50" relative="1" as="geometry">
            <mxPoint x="-540" y="-730" as="sourcePoint" />
            <mxPoint x="-490" y="-780" as="targetPoint" />
          </mxGeometry>
        </mxCell>
        <mxCell id="NjSx0YxmvgouXyziD684-11" value="" style="endArrow=none;html=1;rounded=0;entryX=0;entryY=1;entryDx=0;entryDy=0;exitX=0.75;exitY=0;exitDx=0;exitDy=0;" parent="1" source="NjSx0YxmvgouXyziD684-7" target="NjSx0YxmvgouXyziD684-9" edge="1">
          <mxGeometry width="50" height="50" relative="1" as="geometry">
            <mxPoint x="-540" y="-730" as="sourcePoint" />
            <mxPoint x="-490" y="-780" as="targetPoint" />
          </mxGeometry>
        </mxCell>
        <mxCell id="NjSx0YxmvgouXyziD684-12" value="Thuộc" style="rhombus;whiteSpace=wrap;html=1;" parent="1" vertex="1">
          <mxGeometry x="-660" y="-800" width="80" height="80" as="geometry" />
        </mxCell>
        <mxCell id="NjSx0YxmvgouXyziD684-13" value="" style="endArrow=none;html=1;rounded=0;exitX=1;exitY=0.5;exitDx=0;exitDy=0;entryX=0;entryY=0.5;entryDx=0;entryDy=0;" parent="1" source="NjSx0YxmvgouXyziD684-12" target="NjSx0YxmvgouXyziD684-7" edge="1">
          <mxGeometry width="50" height="50" relative="1" as="geometry">
            <mxPoint x="-540" y="-730" as="sourcePoint" />
            <mxPoint x="-490" y="-780" as="targetPoint" />
          </mxGeometry>
        </mxCell>
        <mxCell id="NjSx0YxmvgouXyziD684-14" value="" style="endArrow=none;html=1;rounded=0;exitX=1;exitY=0.5;exitDx=0;exitDy=0;" parent="1" source="NjSx0YxmvgouXyziD684-1" target="NjSx0YxmvgouXyziD684-12" edge="1">
          <mxGeometry width="50" height="50" relative="1" as="geometry">
            <mxPoint x="-540" y="-730" as="sourcePoint" />
            <mxPoint x="-490" y="-780" as="targetPoint" />
          </mxGeometry>
        </mxCell>
        <mxCell id="NjSx0YxmvgouXyziD684-15" value="1" style="text;html=1;strokeColor=none;fillColor=none;align=center;verticalAlign=middle;whiteSpace=wrap;rounded=0;" parent="1" vertex="1">
          <mxGeometry x="-720" y="-790" width="60" height="30" as="geometry" />
        </mxCell>
        <mxCell id="NjSx0YxmvgouXyziD684-16" value="n" style="text;html=1;strokeColor=none;fillColor=none;align=center;verticalAlign=middle;whiteSpace=wrap;rounded=0;" parent="1" vertex="1">
          <mxGeometry x="-590" y="-790" width="60" height="30" as="geometry" />
        </mxCell>
        <mxCell id="NjSx0YxmvgouXyziD684-17" value="Trưởng Phòng" style="rhombus;whiteSpace=wrap;html=1;" parent="1" vertex="1">
          <mxGeometry x="-660" y="-700" width="80" height="80" as="geometry" />
        </mxCell>
        <mxCell id="NjSx0YxmvgouXyziD684-18" value="" style="endArrow=none;html=1;rounded=0;exitX=1;exitY=0.5;exitDx=0;exitDy=0;entryX=0.5;entryY=1;entryDx=0;entryDy=0;" parent="1" source="NjSx0YxmvgouXyziD684-17" target="NjSx0YxmvgouXyziD684-7" edge="1">
          <mxGeometry width="50" height="50" relative="1" as="geometry">
            <mxPoint x="-540" y="-730" as="sourcePoint" />
            <mxPoint x="-490" y="-780" as="targetPoint" />
            <Array as="points">
              <mxPoint x="-470" y="-660" />
            </Array>
          </mxGeometry>
        </mxCell>
        <mxCell id="NjSx0YxmvgouXyziD684-19" value="" style="endArrow=none;html=1;rounded=0;exitX=0;exitY=0.5;exitDx=0;exitDy=0;entryX=0.75;entryY=1;entryDx=0;entryDy=0;" parent="1" source="NjSx0YxmvgouXyziD684-17" target="NjSx0YxmvgouXyziD684-1" edge="1">
          <mxGeometry width="50" height="50" relative="1" as="geometry">
            <mxPoint x="-540" y="-730" as="sourcePoint" />
            <mxPoint x="-490" y="-780" as="targetPoint" />
            <Array as="points">
              <mxPoint x="-750" y="-660" />
            </Array>
          </mxGeometry>
        </mxCell>
        <mxCell id="NjSx0YxmvgouXyziD684-20" value="1" style="text;html=1;strokeColor=none;fillColor=none;align=center;verticalAlign=middle;whiteSpace=wrap;rounded=0;" parent="1" vertex="1">
          <mxGeometry x="-530" y="-730" width="60" height="30" as="geometry" />
        </mxCell>
        <mxCell id="NjSx0YxmvgouXyziD684-21" value="1" style="text;html=1;strokeColor=none;fillColor=none;align=center;verticalAlign=middle;whiteSpace=wrap;rounded=0;" parent="1" vertex="1">
          <mxGeometry x="-750" y="-730" width="60" height="30" as="geometry" />
        </mxCell>
        <mxCell id="NjSx0YxmvgouXyziD684-22" value="" style="rounded=0;whiteSpace=wrap;html=1;" parent="1" vertex="1">
          <mxGeometry x="-240" y="-790" width="120" height="60" as="geometry" />
        </mxCell>
        <mxCell id="NjSx0YxmvgouXyziD684-23" value="&lt;b&gt;&lt;u&gt;Tên Nhân Thân&lt;/u&gt;&lt;/b&gt;" style="ellipse;whiteSpace=wrap;html=1;" parent="1" vertex="1">
          <mxGeometry x="-225" y="-890" width="95" height="60" as="geometry" />
        </mxCell>
        <mxCell id="NjSx0YxmvgouXyziD684-24" value="Ngày Sinh" style="ellipse;whiteSpace=wrap;html=1;" parent="1" vertex="1">
          <mxGeometry x="-120" y="-860" width="90" height="60" as="geometry" />
        </mxCell>
        <mxCell id="NjSx0YxmvgouXyziD684-25" value="Mối Liên Hệ" style="ellipse;whiteSpace=wrap;html=1;" parent="1" vertex="1">
          <mxGeometry x="-100" y="-790" width="90" height="60" as="geometry" />
        </mxCell>
        <mxCell id="NjSx0YxmvgouXyziD684-26" value="" style="endArrow=none;html=1;rounded=0;entryX=0.5;entryY=0;entryDx=0;entryDy=0;" parent="1" target="NjSx0YxmvgouXyziD684-22" edge="1">
          <mxGeometry width="50" height="50" relative="1" as="geometry">
            <mxPoint x="-180" y="-830" as="sourcePoint" />
            <mxPoint x="-490" y="-680" as="targetPoint" />
          </mxGeometry>
        </mxCell>
        <mxCell id="NjSx0YxmvgouXyziD684-27" value="" style="endArrow=none;html=1;rounded=0;exitX=0.75;exitY=0;exitDx=0;exitDy=0;entryX=0;entryY=1;entryDx=0;entryDy=0;" parent="1" source="NjSx0YxmvgouXyziD684-22" target="NjSx0YxmvgouXyziD684-24" edge="1">
          <mxGeometry width="50" height="50" relative="1" as="geometry">
            <mxPoint x="-540" y="-630" as="sourcePoint" />
            <mxPoint x="-490" y="-680" as="targetPoint" />
          </mxGeometry>
        </mxCell>
        <mxCell id="NjSx0YxmvgouXyziD684-28" value="" style="endArrow=none;html=1;rounded=0;entryX=1;entryY=0.5;entryDx=0;entryDy=0;exitX=0;exitY=0.5;exitDx=0;exitDy=0;" parent="1" source="NjSx0YxmvgouXyziD684-25" target="NjSx0YxmvgouXyziD684-22" edge="1">
          <mxGeometry width="50" height="50" relative="1" as="geometry">
            <mxPoint x="-540" y="-630" as="sourcePoint" />
            <mxPoint x="-490" y="-680" as="targetPoint" />
          </mxGeometry>
        </mxCell>
        <mxCell id="NjSx0YxmvgouXyziD684-29" value="Có" style="rhombus;whiteSpace=wrap;html=1;" parent="1" vertex="1">
          <mxGeometry x="-360" y="-800" width="80" height="80" as="geometry" />
        </mxCell>
        <mxCell id="NjSx0YxmvgouXyziD684-30" value="" style="endArrow=none;html=1;rounded=0;entryX=1;entryY=0.5;entryDx=0;entryDy=0;" parent="1" source="NjSx0YxmvgouXyziD684-29" target="NjSx0YxmvgouXyziD684-7" edge="1">
          <mxGeometry width="50" height="50" relative="1" as="geometry">
            <mxPoint x="-540" y="-630" as="sourcePoint" />
            <mxPoint x="-490" y="-680" as="targetPoint" />
          </mxGeometry>
        </mxCell>
        <mxCell id="NjSx0YxmvgouXyziD684-31" value="" style="endArrow=none;html=1;rounded=0;entryX=0;entryY=0.5;entryDx=0;entryDy=0;exitX=1;exitY=0.5;exitDx=0;exitDy=0;" parent="1" source="NjSx0YxmvgouXyziD684-29" target="NjSx0YxmvgouXyziD684-22" edge="1">
          <mxGeometry width="50" height="50" relative="1" as="geometry">
            <mxPoint x="-540" y="-630" as="sourcePoint" />
            <mxPoint x="-490" y="-680" as="targetPoint" />
          </mxGeometry>
        </mxCell>
        <mxCell id="NjSx0YxmvgouXyziD684-32" value="1" style="text;html=1;strokeColor=none;fillColor=none;align=center;verticalAlign=middle;whiteSpace=wrap;rounded=0;" parent="1" vertex="1">
          <mxGeometry x="-420" y="-790" width="60" height="30" as="geometry" />
        </mxCell>
        <mxCell id="NjSx0YxmvgouXyziD684-33" value="n" style="text;html=1;strokeColor=none;fillColor=none;align=center;verticalAlign=middle;whiteSpace=wrap;rounded=0;" parent="1" vertex="1">
          <mxGeometry x="-300" y="-790" width="60" height="30" as="geometry" />
        </mxCell>
        <mxCell id="NjSx0YxmvgouXyziD684-34" value="Sản Phẩm BĐS" style="rounded=0;whiteSpace=wrap;html=1;" parent="1" vertex="1">
          <mxGeometry x="-840" y="-450" width="120" height="60" as="geometry" />
        </mxCell>
        <mxCell id="NjSx0YxmvgouXyziD684-35" value="Địa Chỉ" style="ellipse;whiteSpace=wrap;html=1;" parent="1" vertex="1">
          <mxGeometry x="-825" y="-360" width="90" height="60" as="geometry" />
        </mxCell>
        <mxCell id="NjSx0YxmvgouXyziD684-36" value="&lt;b&gt;&lt;u&gt;Mã Số BĐS&lt;/u&gt;&lt;/b&gt;" style="ellipse;whiteSpace=wrap;html=1;" parent="1" vertex="1">
          <mxGeometry x="-735" y="-520" width="90" height="60" as="geometry" />
        </mxCell>
        <mxCell id="NjSx0YxmvgouXyziD684-37" value="" style="endArrow=none;html=1;rounded=0;exitX=0.75;exitY=0;exitDx=0;exitDy=0;entryX=0.238;entryY=0.887;entryDx=0;entryDy=0;entryPerimeter=0;" parent="1" source="NjSx0YxmvgouXyziD684-34" target="NjSx0YxmvgouXyziD684-36" edge="1">
          <mxGeometry width="50" height="50" relative="1" as="geometry">
            <mxPoint x="-540" y="-530" as="sourcePoint" />
            <mxPoint x="-490" y="-580" as="targetPoint" />
          </mxGeometry>
        </mxCell>
        <mxCell id="NjSx0YxmvgouXyziD684-38" value="" style="endArrow=none;html=1;rounded=0;exitX=0.5;exitY=0;exitDx=0;exitDy=0;entryX=0.5;entryY=1;entryDx=0;entryDy=0;" parent="1" source="NjSx0YxmvgouXyziD684-35" target="NjSx0YxmvgouXyziD684-34" edge="1">
          <mxGeometry width="50" height="50" relative="1" as="geometry">
            <mxPoint x="-540" y="-530" as="sourcePoint" />
            <mxPoint x="-490" y="-580" as="targetPoint" />
          </mxGeometry>
        </mxCell>
        <mxCell id="NjSx0YxmvgouXyziD684-39" value="Rao Bán" style="rhombus;whiteSpace=wrap;html=1;" parent="1" vertex="1">
          <mxGeometry x="-820" y="-600" width="80" height="80" as="geometry" />
        </mxCell>
        <mxCell id="NjSx0YxmvgouXyziD684-40" value="" style="endArrow=none;html=1;rounded=0;exitX=0.5;exitY=1;exitDx=0;exitDy=0;" parent="1" source="NjSx0YxmvgouXyziD684-1" target="NjSx0YxmvgouXyziD684-39" edge="1">
          <mxGeometry width="50" height="50" relative="1" as="geometry">
            <mxPoint x="-540" y="-530" as="sourcePoint" />
            <mxPoint x="-490" y="-580" as="targetPoint" />
          </mxGeometry>
        </mxCell>
        <mxCell id="NjSx0YxmvgouXyziD684-41" value="" style="endArrow=none;html=1;rounded=0;exitX=0.5;exitY=0;exitDx=0;exitDy=0;entryX=0.5;entryY=1;entryDx=0;entryDy=0;" parent="1" source="NjSx0YxmvgouXyziD684-34" target="NjSx0YxmvgouXyziD684-39" edge="1">
          <mxGeometry width="50" height="50" relative="1" as="geometry">
            <mxPoint x="-540" y="-530" as="sourcePoint" />
            <mxPoint x="-490" y="-580" as="targetPoint" />
          </mxGeometry>
        </mxCell>
        <mxCell id="NjSx0YxmvgouXyziD684-42" value="1" style="text;html=1;strokeColor=none;fillColor=none;align=center;verticalAlign=middle;whiteSpace=wrap;rounded=0;" parent="1" vertex="1">
          <mxGeometry x="-840" y="-730" width="60" height="30" as="geometry" />
        </mxCell>
        <mxCell id="NjSx0YxmvgouXyziD684-43" value="n" style="text;html=1;strokeColor=none;fillColor=none;align=center;verticalAlign=middle;whiteSpace=wrap;rounded=0;" parent="1" vertex="1">
          <mxGeometry x="-840" y="-480" width="60" height="30" as="geometry" />
        </mxCell>
        <mxCell id="NjSx0YxmvgouXyziD684-45" value="Chủ sở hữu" style="rounded=0;whiteSpace=wrap;html=1;" parent="1" vertex="1">
          <mxGeometry x="-300" y="-450" width="120" height="60" as="geometry" />
        </mxCell>
        <mxCell id="NjSx0YxmvgouXyziD684-46" value="&lt;b&gt;&lt;u&gt;Mã Số Chủ Sở Hữu&lt;/u&gt;&lt;/b&gt;" style="ellipse;whiteSpace=wrap;html=1;" parent="1" vertex="1">
          <mxGeometry x="-285" y="-540" width="90" height="60" as="geometry" />
        </mxCell>
        <mxCell id="NjSx0YxmvgouXyziD684-47" value="Tên Chủ Sở Hữu" style="ellipse;whiteSpace=wrap;html=1;" parent="1" vertex="1">
          <mxGeometry x="-180" y="-510" width="90" height="60" as="geometry" />
        </mxCell>
        <mxCell id="NjSx0YxmvgouXyziD684-49" value="Địa Chỉ" style="ellipse;whiteSpace=wrap;html=1;" parent="1" vertex="1">
          <mxGeometry x="-150" y="-430" width="90" height="60" as="geometry" />
        </mxCell>
        <mxCell id="NjSx0YxmvgouXyziD684-50" value="Số Điện Thoại" style="ellipse;whiteSpace=wrap;html=1;" parent="1" vertex="1">
          <mxGeometry x="-285" y="-360" width="90" height="60" as="geometry" />
        </mxCell>
        <mxCell id="NjSx0YxmvgouXyziD684-51" value="" style="endArrow=none;html=1;rounded=0;entryX=0.5;entryY=0;entryDx=0;entryDy=0;exitX=0.5;exitY=1;exitDx=0;exitDy=0;" parent="1" source="NjSx0YxmvgouXyziD684-46" target="NjSx0YxmvgouXyziD684-45" edge="1">
          <mxGeometry width="50" height="50" relative="1" as="geometry">
            <mxPoint x="-540" y="-530" as="sourcePoint" />
            <mxPoint x="-490" y="-580" as="targetPoint" />
          </mxGeometry>
        </mxCell>
        <mxCell id="NjSx0YxmvgouXyziD684-52" value="" style="endArrow=none;html=1;rounded=0;entryX=0;entryY=0.5;entryDx=0;entryDy=0;" parent="1" target="NjSx0YxmvgouXyziD684-49" edge="1">
          <mxGeometry width="50" height="50" relative="1" as="geometry">
            <mxPoint x="-180" y="-410" as="sourcePoint" />
            <mxPoint x="-490" y="-580" as="targetPoint" />
          </mxGeometry>
        </mxCell>
        <mxCell id="NjSx0YxmvgouXyziD684-53" value="" style="endArrow=none;html=1;rounded=0;exitX=0.5;exitY=1;exitDx=0;exitDy=0;entryX=0.5;entryY=0;entryDx=0;entryDy=0;" parent="1" source="NjSx0YxmvgouXyziD684-45" target="NjSx0YxmvgouXyziD684-50" edge="1">
          <mxGeometry width="50" height="50" relative="1" as="geometry">
            <mxPoint x="-430" y="-530" as="sourcePoint" />
            <mxPoint x="-380" y="-580" as="targetPoint" />
          </mxGeometry>
        </mxCell>
        <mxCell id="NjSx0YxmvgouXyziD684-54" value="" style="endArrow=none;html=1;rounded=0;entryX=0;entryY=1;entryDx=0;entryDy=0;exitX=1;exitY=0;exitDx=0;exitDy=0;" parent="1" source="NjSx0YxmvgouXyziD684-45" target="NjSx0YxmvgouXyziD684-47" edge="1">
          <mxGeometry width="50" height="50" relative="1" as="geometry">
            <mxPoint x="-430" y="-530" as="sourcePoint" />
            <mxPoint x="-380" y="-580" as="targetPoint" />
          </mxGeometry>
        </mxCell>
        <mxCell id="NjSx0YxmvgouXyziD684-56" value="Sở Hữu" style="rhombus;whiteSpace=wrap;html=1;" parent="1" vertex="1">
          <mxGeometry x="-530" y="-460" width="80" height="80" as="geometry" />
        </mxCell>
        <mxCell id="NjSx0YxmvgouXyziD684-57" value="" style="endArrow=none;html=1;rounded=0;exitX=1;exitY=0.5;exitDx=0;exitDy=0;entryX=0;entryY=0.5;entryDx=0;entryDy=0;" parent="1" source="NjSx0YxmvgouXyziD684-56" target="NjSx0YxmvgouXyziD684-45" edge="1">
          <mxGeometry width="50" height="50" relative="1" as="geometry">
            <mxPoint x="-430" y="-530" as="sourcePoint" />
            <mxPoint x="-380" y="-580" as="targetPoint" />
          </mxGeometry>
        </mxCell>
        <mxCell id="NjSx0YxmvgouXyziD684-58" value="" style="endArrow=none;html=1;rounded=0;exitX=1;exitY=0.5;exitDx=0;exitDy=0;entryX=0;entryY=0.5;entryDx=0;entryDy=0;" parent="1" source="NjSx0YxmvgouXyziD684-34" target="NjSx0YxmvgouXyziD684-56" edge="1">
          <mxGeometry width="50" height="50" relative="1" as="geometry">
            <mxPoint x="-430" y="-530" as="sourcePoint" />
            <mxPoint x="-380" y="-580" as="targetPoint" />
          </mxGeometry>
        </mxCell>
        <mxCell id="NjSx0YxmvgouXyziD684-59" value="n" style="text;html=1;strokeColor=none;fillColor=none;align=center;verticalAlign=middle;whiteSpace=wrap;rounded=0;" parent="1" vertex="1">
          <mxGeometry x="-720" y="-450" width="60" height="30" as="geometry" />
        </mxCell>
        <mxCell id="NjSx0YxmvgouXyziD684-60" value="1" style="text;html=1;strokeColor=none;fillColor=none;align=center;verticalAlign=middle;whiteSpace=wrap;rounded=0;" parent="1" vertex="1">
          <mxGeometry x="-360" y="-450" width="60" height="30" as="geometry" />
        </mxCell>
        <mxCell id="gc4P9LVnuoDQ8VPBm4d--1" value="Nhân Thân" style="rounded=0;whiteSpace=wrap;html=1;" vertex="1" parent="1">
          <mxGeometry x="-225" y="-775" width="90" height="30" as="geometry" />
        </mxCell>
      </root>
    </mxGraphModel>
  </diagram>
</mxfile>
